<?xml version="1.0" encoding="UTF-8" standalone="no"?>
<!-- Created with Inkscape (http://www.inkscape.org/) -->

<svg
   width="100.00008mm"
   height="16.814798mm"
   viewBox="0 0 100.00008 16.814798"
   version="1.1"
   id="svg5"
   sodipodi:docname="clearlease_logo_rgb.svg"
   inkscape:export-filename="clearlease_logo_rgb_newplain.svg"
   inkscape:export-xdpi="1269.9993"
   inkscape:export-ydpi="1269.9993"
   inkscape:version="1.3.2 (091e20e, 2023-11-25, custom)"
   xmlns:inkscape="http://www.inkscape.org/namespaces/inkscape"
   xmlns:sodipodi="http://sodipodi.sourceforge.net/DTD/sodipodi-0.dtd"
   xmlns="http://www.w3.org/2000/svg"
   xmlns:svg="http://www.w3.org/2000/svg">
  <sodipodi:namedview
     id="namedview1"
     pagecolor="#ffffff"
     bordercolor="#000000"
     borderopacity="0.25"
     inkscape:showpageshadow="2"
     inkscape:pageopacity="0.0"
     inkscape:pagecheckerboard="0"
     inkscape:deskcolor="#d1d1d1"
     inkscape:document-units="mm"
     inkscape:zoom="3.6142061"
     inkscape:cx="188.97649"
     inkscape:cy="31.68054"
     inkscape:window-width="2560"
     inkscape:window-height="1369"
     inkscape:window-x="-8"
     inkscape:window-y="-8"
     inkscape:window-maximized="1"
     inkscape:current-layer="svg5" />
  <defs
     id="defs2" />
  <g
     id="layer1"
     transform="translate(-5.0000004,-4.9999887)"
     style="stroke-width:0.5;stroke-dasharray:none">
    <g
       id="text501"
       style="font-size:22.403px;font-family:Montserrat;-inkscape-font-specification:'Montserrat, @wght=600';font-variation-settings:'wght' 600;letter-spacing:-1.86793px"
       transform="scale(0.99792132,1.002083)"
       aria-label="clearlea.se">
      <path
         style="fill:#247ba0"
         d="m 11.484882,21.769442 q -1.8818515,0 -3.3604495,-0.784105 -1.456195,-0.806508 -2.285106,-2.195494 -0.828911,-1.388986 -0.828911,-3.158823 0,-1.79224 0.828911,-3.158823 0.828911,-1.388986 2.285106,-2.173091 1.478598,-0.7841046 3.3604495,-0.7841046 1.747434,0 3.069211,0.7168956 1.34418,0.694493 2.038673,2.061076 l -2.150688,1.254568 q -0.537672,-0.851314 -1.321777,-1.254568 -0.761702,-0.403254 -1.657822,-0.403254 -1.030538,0 -1.8594485,0.44806 -0.828911,0.44806 -1.299374,1.299374 -0.470463,0.828911 -0.470463,1.993867 0,1.164956 0.470463,2.01627 0.470463,0.828911 1.299374,1.276971 0.8289105,0.44806 1.8594485,0.44806 0.89612,0 1.657822,-0.403254 0.784105,-0.403254 1.321777,-1.254568 l 2.150688,1.254568 q -0.694493,1.34418 -2.038673,2.083479 -1.321777,0.716896 -3.069211,0.716896 z m 5.542426,-0.156821 V 4.9895954 h 2.800375 V 21.612621 Z m 10.22968,0.156821 q -1.993867,0 -3.494868,-0.784105 -1.478598,-0.806508 -2.307509,-2.195494 -0.806508,-1.388986 -0.806508,-3.158823 0,-1.79224 0.784105,-3.158823 0.806508,-1.388986 2.195494,-2.173091 1.411389,-0.7841046 3.203629,-0.7841046 1.747434,0 3.114017,0.7617016 1.366583,0.761702 2.150688,2.150688 0.784105,1.388986 0.784105,3.270838 0,0.179224 -0.0224,0.403254 0,0.22403 -0.0224,0.425657 H 22.866 v -1.859449 h 8.490737 l -1.097747,0.582478 q 0.0224,-1.030538 -0.425657,-1.814643 -0.44806,-0.784105 -1.232165,-1.232165 -0.761702,-0.44806 -1.769837,-0.44806 -1.030538,0 -1.814643,0.44806 -0.761702,0.44806 -1.209762,1.254568 -0.425657,0.784105 -0.425657,1.859449 v 0.44806 q 0,1.075344 0.492866,1.904255 0.492866,0.828911 1.388986,1.276971 0.89612,0.44806 2.061076,0.44806 1.008135,0 1.814643,-0.313642 0.806508,-0.313642 1.433792,-0.985732 l 1.501001,1.725031 q -0.806508,0.940926 -2.038673,1.456195 -1.209762,0.492866 -2.777972,0.492866 z m 13.478134,-0.156821 v -2.419524 l -0.156821,-0.515269 v -4.234167 q 0,-1.232165 -0.739299,-1.904255 -0.739299,-0.694493 -2.2403,-0.694493 -1.008135,0 -1.993867,0.313642 -0.963329,0.313642 -1.635419,0.873717 l -1.097747,-2.038673 q 0.963329,-0.739299 2.285106,-1.0977466 1.34418,-0.380851 2.777972,-0.380851 2.598748,0 4.010137,1.2545676 1.433792,1.232165 1.433792,3.830913 v 7.012139 z m -3.763704,0.156821 q -1.34418,0 -2.352315,-0.44806 -1.008135,-0.470463 -1.56821,-1.276971 -0.537672,-0.828911 -0.537672,-1.859449 0,-1.008135 0.470463,-1.814643 0.492866,-0.806508 1.590613,-1.276971 1.097747,-0.470463 2.91239,-0.470463 h 3.472465 v 1.859449 h -3.270838 q -1.433792,0 -1.926658,0.470463 -0.492866,0.44806 -0.492866,1.12015 0,0.761702 0.604881,1.209762 0.604881,0.44806 1.680225,0.44806 1.030538,0 1.837046,-0.470463 0.828911,-0.470463 1.187359,-1.388986 l 0.470463,1.680225 q -0.403254,1.052941 -1.456195,1.635419 -1.030538,0.582478 -2.621151,0.582478 z m 8.123816,-0.156821 V 9.6494194 h 2.665957 V 12.94266 l -0.313642,-0.963329 q 0.537672,-1.209762 1.680225,-1.837046 1.164956,-0.6272836 2.889987,-0.6272836 v 2.6659566 q -0.179224,-0.04481 -0.336045,-0.04481 -0.156821,-0.0224 -0.313642,-0.0224 -1.590613,0 -2.531539,0.940926 -0.940926,0.918523 -0.940926,2.755569 v 5.802377 z"
         id="path1" />
      <path
         style="fill:#13293d"
         d="M 52.636566,21.612621 V 4.9895954 h 2.800375 V 21.612621 Z m 10.229679,0.156821 q -1.993867,0 -3.494868,-0.784105 -1.478598,-0.806508 -2.307509,-2.195494 -0.806508,-1.388986 -0.806508,-3.158823 0,-1.79224 0.784105,-3.158823 0.806508,-1.388986 2.195494,-2.173091 1.411389,-0.7841046 3.203629,-0.7841046 1.747434,0 3.114017,0.7617016 1.366583,0.761702 2.150688,2.150688 0.784105,1.388986 0.784105,3.270838 0,0.179224 -0.0224,0.403254 0,0.22403 -0.0224,0.425657 H 58.475263 V 14.667691 H 66.966 l -1.097747,0.582478 q 0.0224,-1.030538 -0.425657,-1.814643 -0.44806,-0.784105 -1.232165,-1.232165 -0.761702,-0.44806 -1.769837,-0.44806 -1.030538,0 -1.814643,0.44806 -0.761702,0.44806 -1.209762,1.254568 -0.425657,0.784105 -0.425657,1.859449 v 0.44806 q 0,1.075344 0.492866,1.904255 0.492866,0.828911 1.388986,1.276971 0.89612,0.44806 2.061076,0.44806 1.008135,0 1.814643,-0.313642 0.806508,-0.313642 1.433792,-0.985732 l 1.501001,1.725031 q -0.806508,0.940926 -2.038673,1.456195 -1.209762,0.492866 -2.777972,0.492866 z m 13.478131,-0.156821 v -2.419524 l -0.156821,-0.515269 v -4.234167 q 0,-1.232165 -0.739298,-1.904255 -0.739299,-0.694493 -2.2403,-0.694493 -1.008135,0 -1.993867,0.313642 -0.963329,0.313642 -1.635419,0.873717 l -1.097747,-2.038673 q 0.963329,-0.739299 2.285106,-1.0977466 1.34418,-0.380851 2.777972,-0.380851 2.598747,0 4.010136,1.2545676 1.433792,1.232165 1.433792,3.830913 v 7.012139 z m -3.763703,0.156821 q -1.34418,0 -2.352315,-0.44806 -1.008135,-0.470463 -1.56821,-1.276971 -0.537672,-0.828911 -0.537672,-1.859449 0,-1.008135 0.470463,-1.814643 0.492866,-0.806508 1.590613,-1.276971 1.097747,-0.470463 2.91239,-0.470463 h 3.472464 v 1.859449 h -3.270837 q -1.433792,0 -1.926658,0.470463 -0.492866,0.44806 -0.492866,1.12015 0,0.761702 0.604881,1.209762 0.604881,0.44806 1.680225,0.44806 1.030538,0 1.837046,-0.470463 0.82891,-0.470463 1.187358,-1.388986 l 0.470463,1.680225 q -0.403254,1.052941 -1.456194,1.635419 -1.030538,0.582478 -2.621151,0.582478 z m 9.019938,0 q -0.761702,0 -1.299374,-0.515269 -0.537672,-0.537672 -0.537672,-1.34418 0,-0.851314 0.537672,-1.34418 0.537672,-0.515269 1.299374,-0.515269 0.761702,0 1.299374,0.515269 0.537672,0.492866 0.537672,1.34418 0,0.806508 -0.537672,1.34418 -0.537672,0.515269 -1.299374,0.515269 z m 6.398764,0 q -1.501001,0 -2.889987,-0.380851 -1.366583,-0.403254 -2.173091,-0.963329 l 1.075344,-2.128285 q 0.806508,0.515269 1.926658,0.851314 1.12015,0.336045 2.2403,0.336045 1.321777,0 1.904255,-0.358448 0.604881,-0.358448 0.604881,-0.963329 0,-0.492866 -0.403254,-0.739299 -0.403254,-0.268836 -1.052941,-0.403254 -0.649687,-0.134418 -1.456195,-0.246433 -0.784105,-0.112015 -1.590613,-0.291239 -0.784105,-0.201627 -1.433792,-0.560075 -0.649687,-0.380851 -1.052941,-1.008135 -0.403254,-0.627284 -0.403254,-1.657822 0,-1.142553 0.649687,-1.971464 0.649687,-0.851314 1.814643,-1.2993736 1.187359,-0.470463 2.800375,-0.470463 1.209762,0 2.441927,0.268836 1.232165,0.2688356 2.038673,0.7617016 l -1.075344,2.128285 q -0.851314,-0.515269 -1.725031,-0.694493 -0.851314,-0.201627 -1.702628,-0.201627 -1.276971,0 -1.904255,0.380851 -0.604881,0.380851 -0.604881,0.963329 0,0.537672 0.403254,0.806508 0.403254,0.268836 1.052941,0.425657 0.649687,0.156821 1.433792,0.268836 0.806508,0.08961 1.590613,0.291239 0.784105,0.201627 1.433792,0.560075 0.67209,0.336045 1.075344,0.963329 0.403254,0.627284 0.403254,1.635419 0,1.12015 -0.67209,1.949061 -0.649687,0.828911 -1.859449,1.299374 -1.209762,0.44806 -2.889987,0.44806 z m 11.596259,0 q -1.993867,0 -3.494868,-0.784105 -1.478598,-0.806508 -2.307509,-2.195494 -0.806508,-1.388986 -0.806508,-3.158823 0,-1.79224 0.784105,-3.158823 0.806508,-1.388986 2.195494,-2.173091 1.411389,-0.7841046 3.203629,-0.7841046 1.747433,0 3.114013,0.7617016 1.36659,0.761702 2.15069,2.150688 0.78411,1.388986 0.78411,3.270838 0,0.179224 -0.0224,0.403254 0,0.22403 -0.0224,0.425657 h -9.969334 v -1.859449 h 8.490734 l -1.09774,0.582478 q 0.0224,-1.030538 -0.42566,-1.814643 -0.44806,-0.784105 -1.23217,-1.232165 -0.7617,-0.44806 -1.769833,-0.44806 -1.030538,0 -1.814643,0.44806 -0.761702,0.44806 -1.209762,1.254568 -0.425657,0.784105 -0.425657,1.859449 v 0.44806 q 0,1.075344 0.492866,1.904255 0.492866,0.828911 1.388986,1.276971 0.89612,0.44806 2.061076,0.44806 1.008137,0 1.814647,-0.313642 0.8065,-0.313642 1.43379,-0.985732 l 1.501,1.725031 q -0.80651,0.940926 -2.03867,1.456195 -1.20977,0.492866 -2.777976,0.492866 z"
         id="path2" />
    </g>
  </g>
</svg>
